# xmcd CD database file
#
# Track frame offsets:
#	150
#	23370
#	45782
#	66325
#
# Disc length: 1192 seconds
#
# Revision: 2
# Processed by: cddbd v1.5PL3 Copyright (c) Steve Scherf et al.
# Submitted via: CDex 1.51
#
DISCID=2204a604
DTITLE=Crystal Kay - Eternal Memories
DYEAR=1900
DGENRE=Pop
TTITLE0=Eternal Memories
TTITLE1=FLY AWAY
TTITLE2=FLY AWAY(acappella)
TTITLE3=Eternal Memories(instrumental)
EXTD=
EXTT0=
EXTT1=
EXTT2=
EXTT3=
PLAYORDER=
